<svg width="40" height="40" viewBox="0 0 40 40" fill="none" xmlns="http://www.w3.org/2000/svg">
  <path d="M16.6667 18.3333H13.3334C12.4167 18.3333 11.6667 19.0833 11.6667 20V25C11.6667 25.9167 12.4167 26.6667 13.3334 26.6667H16.6667C17.5834 26.6667 18.3334 25.9167 18.3334 25V20C18.3334 19.0833 17.5834 18.3333 16.6667 18.3333ZM30 26.6667H26.6667C25.75 26.6667 25 25.9167 25 25V20C25 19.0833 25.75 18.3333 26.6667 18.3333H30C30.9167 18.3333 31.6667 19.0833 31.6667 20V25C31.6667 25.9167 30.9167 26.6667 30 26.6667ZM18.3334 13.3333V15.8333C18.3334 16.75 17.5834 17.5 16.6667 17.5H15C14.0834 17.5 13.3334 16.75 13.3334 15.8333V13.3333C13.3334 10.5833 11.0834 8.33333 8.33335 8.33333V6.66667C12 6.66667 15 9.66667 15 13.3333V15C15 15.9167 15.75 16.6667 16.6667 16.6667C17.5834 16.6667 18.3334 15.9167 18.3334 15V13.3333ZM31.6667 13.3333V15.8333C31.6667 16.75 30.9167 17.5 30 17.5H28.3334C27.4167 17.5 26.6667 16.75 26.6667 15.8333V13.3333C26.6667 10.5833 24.4167 8.33333 21.6667 8.33333V6.66667C25.3334 6.66667 28.3334 9.66667 28.3334 13.3333V15C28.3334 15.9167 29.0834 16.6667 30 16.6667C30.9167 16.6667 31.6667 15.9167 31.6667 15V13.3333Z" fill="white" fill-opacity="0.7"/>
</svg> 